<svg width="256" height="44" viewBox="0 0 256 44" fill="none" xmlns="http://www.w3.org/2000/svg">
<mask id="mask0" mask-type="alpha" maskUnits="userSpaceOnUse" x="144" y="0" width="112" height="44">
<path d="M144.79 0.0146484H255.09V43.1696H144.79V0.0146484Z" fill="white"/>
</mask>
<g mask="url(#mask0)">
<path fill-rule="evenodd" clip-rule="evenodd" d="M185.889 31.6406C180.537 31.6406 176.205 27.7806 176.205 23.0156C176.205 18.2497 180.537 14.3856 185.889 14.3856C191.232 14.3856 195.566 18.2497 195.566 23.0156C195.566 27.7806 191.232 31.6406 185.889 31.6406ZM185.889 11.5126C178.758 11.5126 172.98 16.6596 172.98 23.0156C172.98 29.3656 178.758 34.5156 185.889 34.5156C189.746 34.5156 193.2 32.9976 195.566 30.6036V34.5096H198.795V23.0156C198.795 16.6596 193.015 11.5126 185.889 11.5126ZM255.091 11.5126H251.861V23.0266C251.861 27.7866 247.523 31.6406 242.179 31.6406C236.834 31.6406 232.499 27.7806 232.499 23.0156V11.5126H229.271V23.0156C229.271 29.3656 235.052 34.5156 242.179 34.5156C246.041 34.5156 249.496 32.9976 251.862 30.6096V31.6696C251.862 36.4346 247.525 40.2996 242.179 40.2996V43.1696C249.31 43.1696 255.091 38.0226 255.091 31.6696C255.091 31.3756 255.069 31.0926 255.044 30.8046H255.091V11.5126V11.5126ZM213.968 31.6396C208.619 31.6396 204.287 27.7796 204.287 23.0146C204.287 18.2486 208.619 14.3846 213.968 14.3846C219.314 14.3846 223.647 18.2486 223.647 23.0146C223.647 27.7796 219.313 31.6396 213.968 31.6396ZM213.968 11.5116C210.109 11.5116 206.652 13.0316 204.287 15.4236V0.0146484H201.058V23.0156C201.058 29.3656 206.838 34.5156 213.968 34.5156C221.099 34.5156 226.874 29.3656 226.874 23.0156C226.874 16.6616 221.099 11.5126 213.968 11.5126V11.5116ZM157.698 31.6396C152.351 31.6396 148.018 27.7796 148.018 23.0146C148.018 18.2486 152.352 14.3846 157.698 14.3846C163.046 14.3846 167.383 18.2486 167.383 23.0146C167.383 27.7796 163.046 31.6396 157.698 31.6396V31.6396ZM157.698 11.5116C153.837 11.5116 150.384 13.0316 148.018 15.4236V0.0146484H144.789V23.0156C144.789 29.3656 150.568 34.5156 157.698 34.5156C164.833 34.5156 170.61 29.3656 170.61 23.0156C170.61 16.6616 164.833 11.5126 157.698 11.5126V11.5116Z" fill="#636569"/>
</g>
<mask id="mask1" mask-type="alpha" maskUnits="userSpaceOnUse" x="0" y="0" width="32" height="35">
<path d="M0 0.0146484H31.7652V34.8507H0V0.0146484Z" fill="white"/>
</mask>
<g mask="url(#mask1)">
<path fill-rule="evenodd" clip-rule="evenodd" d="M27.7935 12.2276H20.361C19.0693 12.9636 17.5312 13.3976 15.8837 13.3976C14.234 13.3976 12.698 12.9636 11.401 12.2276H3.96853C1.77819 12.2276 0 13.7926 0 15.7176C0 17.6476 1.77819 19.2086 3.96747 19.2086H7.94025V23.8066C7.94025 27.6616 11.4998 30.7846 15.8837 30.7846C20.2676 30.7846 23.8229 27.6616 23.8229 23.8066V19.2086H27.7935C29.9871 19.2086 31.7663 17.6486 31.7663 15.7176C31.7663 13.7926 29.9871 12.2276 27.7935 12.2276V12.2276ZM24.7587 26.1306C23.961 28.4836 21.9905 30.3936 19.4401 31.3236L22.2858 33.8286C23.8367 35.1916 26.3489 35.1916 27.9008 33.8286C29.4506 32.4686 29.4506 30.2586 27.9008 28.8916L24.7587 26.1306ZM7.00866 26.1306L3.86231 28.8916C2.31144 30.2586 2.31144 32.4686 3.86231 33.8286C5.41212 35.1916 7.92538 35.1916 9.47519 33.8286L12.3252 31.3236C9.77686 30.3936 7.80216 28.4836 7.00973 26.1306H7.00866ZM15.8837 12.2276C19.7163 12.2276 22.8307 9.49565 22.8307 6.11765C22.8307 2.74965 19.7163 0.0146484 15.8837 0.0146484C12.0458 0.0146484 8.93344 2.74965 8.93344 6.11965C8.93344 9.49665 12.0458 12.2296 15.8837 12.2296V12.2276Z" fill="#FFB71B"/>
</g>
<mask id="mask2" mask-type="alpha" maskUnits="userSpaceOnUse" x="40" y="0" width="95" height="35">
<path d="M40.6401 0.015625H134.162V34.8536H40.6401V0.015625Z" fill="white"/>
</mask>
<g mask="url(#mask2)">
<path fill-rule="evenodd" clip-rule="evenodd" d="M53.5314 31.9506C48.1926 31.9506 43.865 28.0526 43.865 23.2406C43.865 18.4286 48.1926 14.5256 53.5314 14.5256C58.8692 14.5256 63.1957 18.4286 63.1957 23.2416C63.1957 28.0526 58.8692 31.9516 53.5314 31.9516V31.9506ZM53.5314 11.6256C49.6755 11.6256 46.2253 13.1626 43.865 15.5756V0.0156484H40.6411V23.2416H40.6432C40.6432 29.6546 46.4144 34.8536 53.5325 34.8536C60.6495 34.8536 66.4206 29.6536 66.4206 23.2416C66.4206 16.8246 60.6495 11.6256 53.5325 11.6256H53.5314ZM72.0654 21.7866C72.8344 17.6706 76.7987 14.5266 81.5873 14.5266C86.3727 14.5266 90.3391 17.6706 91.1103 21.7866H72.0643H72.0654ZM81.5873 11.6256C74.4682 11.6256 68.696 16.8256 68.696 23.2416C68.696 29.6546 74.4682 34.8536 81.5873 34.8536C86.9962 34.8536 91.6287 31.8466 93.5375 27.5946H89.9471C88.2773 30.1966 85.1628 31.9506 81.5873 31.9506C76.7987 31.9506 72.8344 28.8126 72.0654 24.6926H94.3724C94.4394 24.2166 94.4787 23.7316 94.4787 23.2416C94.4787 16.8246 88.7064 11.6256 81.5873 11.6256V11.6256ZM102.625 34.8536H105.849V0.0146484H102.625V34.8536ZM96.7508 34.8536H99.9757V0.0146484H96.7508V34.8536ZM121.27 31.9506C115.931 31.9506 111.602 28.0526 111.602 23.2406C111.602 18.4286 115.931 14.5256 121.27 14.5256C126.607 14.5256 130.934 18.4286 130.934 23.2416C130.934 28.0526 126.607 31.9516 121.27 31.9516V31.9506ZM134.162 23.2406C134.162 16.8226 128.39 11.6256 121.27 11.6256C114.151 11.6256 108.378 16.8226 108.378 23.2416C108.378 29.6546 114.151 34.8536 121.27 34.8536C125.122 34.8536 128.574 33.3206 130.934 30.9036V34.8476H134.163V23.2416L134.162 23.2406Z" fill="#FFB71B"/>
</g>
</svg>
