<svg width="257" height="63" viewBox="0 0 257 63" fill="none" xmlns="http://www.w3.org/2000/svg">
<g clip-path="url(#clip0)">
<path d="M256.528 0H0.52771V62.6447H256.528V0Z" fill="#EBE9E7"/>
<path d="M942.608 -239.736H-47.6605V172.273H942.608V-239.736Z" fill="#FAFAFA"/>
<path fill-rule="evenodd" clip-rule="evenodd" d="M24.3344 14.9788L24.0049 14.9872L23.9966 15.0293L23.9843 15.0714V15.1976L24.1079 15.4501C24.1902 15.6184 24.3371 15.798 24.5486 15.9887C24.7628 16.1767 25.3162 16.3829 26.2086 16.6073C27.1011 16.8317 27.6956 17.052 27.9922 17.268C28.286 17.4868 28.4371 17.6103 28.4453 17.6383C28.4508 17.6664 28.5977 17.7533 28.8861 17.8992C29.1744 18.0479 29.6824 18.2555 30.4101 18.522C31.1378 18.7885 31.7832 18.7605 32.3462 18.4379C32.9091 18.1152 33.3992 17.8179 33.8167 17.5457C34.2368 17.2708 34.5361 17.0421 34.7147 16.8598C34.8931 16.6775 35.11 16.4432 35.3654 16.157C35.6181 15.8681 35.9229 15.6605 36.2799 15.5343C36.6369 15.408 36.8772 15.3519 37.0008 15.366C37.1243 15.3799 37.2411 15.4361 37.3509 15.5343C37.4607 15.6325 37.6255 15.7727 37.8452 15.9551C38.0649 16.1374 38.2543 16.2945 38.4137 16.4264C38.5701 16.561 38.6525 16.6677 38.6608 16.7462C38.6663 16.8219 38.6553 16.8668 38.6278 16.8808C38.6004 16.8949 38.5729 16.9089 38.5454 16.9229L38.5042 16.944L38.566 16.965L38.6278 16.9861L40.2343 17.3227C41.3052 17.5472 41.8682 17.6664 41.9231 17.6804L42.0055 17.7014L42.0137 17.7141L42.0261 17.7224L42.0384 17.7309L42.0467 17.7435L42.0549 17.7561L42.0673 17.7645L42.0879 17.8277L42.1085 17.8908L42.1208 17.9749L42.1291 18.0591H41.7172L42.0384 19.2584C42.2499 20.0579 42.3625 20.4787 42.3762 20.5209L42.3968 20.584L42.4174 20.6471L42.438 20.7102L42.4504 20.7523L42.4586 20.7944L42.4174 20.7859L42.3762 20.7733L42.335 20.7523L42.2938 20.7313L42.2856 20.7186L42.2732 20.7102L42.2609 20.7186L42.2526 20.7313L42.2444 20.7438L42.2321 20.7523L42.2115 20.7944L42.1909 20.8364H42.1497L42.1291 20.7733L42.1085 20.7102L42.0879 20.6471C42.0741 20.605 41.9575 20.1982 41.7377 19.4267L41.4082 18.2695L41.3876 18.2064L41.367 18.1433L41.3547 18.1349L41.3464 18.1222L41.3382 18.1096L41.3258 18.1012L41.3135 18.0928L41.3052 18.0802H41.2228L41.2147 18.0928L41.2023 18.1012L41.1817 18.1433L41.1611 18.1853L41.1405 18.2695L41.1199 18.3537L41.0993 18.3957C41.0856 18.4238 41.01 18.6412 40.8728 19.048C40.7354 19.4548 40.616 19.8125 40.5144 20.1211L40.3579 20.584L40.3373 20.5924C40.3235 20.6008 40.3098 20.612 40.2961 20.626L40.2755 20.6471V20.7102L40.2549 20.7186L40.2343 20.7313L40.226 20.7438L40.2137 20.7523L40.2013 20.7438L40.1931 20.7313L40.1849 20.7186L40.1725 20.7102L40.1601 20.7523L40.1519 20.7944H40.0695L40.0613 20.8364L40.0489 20.8785H40.0283V20.8364L40.0366 20.7733L40.0489 20.7102H40.0695L40.0778 20.6471L40.0901 20.584L40.4402 19.4478C40.6737 18.6903 40.7972 18.2906 40.811 18.2485L40.8316 18.1853L40.8439 18.1222L40.8522 18.0591H35.4149L35.4232 18.1012L35.4355 18.1433L35.7856 19.4057C36.0191 20.2473 36.1426 20.6962 36.1563 20.7523L36.1769 20.8364L36.1893 20.9206L36.1975 21.0048L36.1769 20.9963L36.1563 20.9837H36.0739L36.0657 20.9963L36.0533 21.0048L36.041 20.9963L36.0327 20.9837L36.0245 20.9711L36.0122 20.9627L35.9998 20.9711L35.9916 20.9837L35.9504 20.9963L35.9092 21.0048L35.9009 20.9837L35.8886 20.9627L35.868 20.8996L35.8474 20.8364L35.8268 20.7523C35.8131 20.6962 35.7032 20.3104 35.4973 19.595L35.1884 18.522L35.1678 18.4589L35.1472 18.3957L35.1348 18.3873L35.1266 18.3747L35.1183 18.3621L35.106 18.3537L35.0936 18.3621L35.0853 18.3747L35.0771 18.3873L35.0647 18.3957L35.0524 18.4042L35.0441 18.4168L35.036 18.4294L35.0235 18.4379L35.0112 18.4462L35.0029 18.4589L34.9948 18.4715L34.9824 18.4799L34.97 18.4883L34.9618 18.501L34.9536 18.5136L34.9412 18.522L34.9289 18.5304L34.9206 18.543L34.9124 18.5557L34.9 18.5641L34.8877 18.5725L34.8794 18.5851L34.8712 18.5977C34.8629 18.6034 34.8355 18.623 34.7888 18.6566C34.7394 18.6931 34.5526 19.1981 34.2286 20.1715L33.7466 21.636L33.726 21.6991L33.7054 21.7622L33.6931 21.7706L33.6849 21.7833V21.8043H33.6643L33.6437 21.7412L33.6231 21.678L33.6107 21.6865L33.6025 21.6991L33.5613 21.7117L33.5201 21.7201V21.636H33.4377L33.4459 21.5939L33.4583 21.5518L33.4789 21.4887C33.4926 21.4466 33.5887 21.131 33.7672 20.5419L34.035 19.6582L34.0556 19.6161L34.0762 19.574L34.0968 19.4899L34.1174 19.4057L34.1297 19.3973L34.138 19.3846H34.0144L34.0061 19.3973L33.9938 19.4057L33.9814 19.4141L33.9732 19.4267L33.965 19.4394L33.9526 19.4478L33.9402 19.4562L33.932 19.4688L33.9238 19.4814L33.9114 19.4899L33.8991 19.4983L33.8908 19.5109L33.8826 19.5235L33.8702 19.5319L33.8579 19.5403L33.8496 19.553L33.8414 19.5656L33.829 19.574L33.8167 19.5824C33.8112 19.5909 33.7604 19.6273 33.6643 19.6918C33.5681 19.7536 33.5174 19.7984 33.5118 19.8265C33.5036 19.8545 33.3553 19.9667 33.067 20.1632C32.7786 20.3595 32.4656 20.5447 32.1278 20.7186C31.7928 20.8953 31.5154 20.9627 31.2958 20.9206C31.0761 20.8785 30.3552 20.6822 29.1332 20.3315L27.3002 19.8054L27.2384 19.7844L27.1766 19.7634L27.1684 19.7507L27.156 19.7423V19.9107L27.1766 19.9738C27.1904 20.0158 27.2041 20.1141 27.2178 20.2683C27.2315 20.4227 27.1835 20.7172 27.0736 21.1521C26.9638 21.5869 26.902 22.162 26.8883 22.8774C26.8746 23.5927 26.8265 24.1398 26.7441 24.5185C26.6617 24.8972 26.5972 25.1314 26.5505 25.2213C26.5011 25.3138 26.4146 25.3783 26.291 25.4148C26.1675 25.4485 26.1084 25.5004 26.1139 25.5705C26.1221 25.6407 26.1716 25.7767 26.2621 25.9787C26.35 26.1835 26.4516 26.3939 26.567 26.6099C26.6851 26.8288 26.8059 27.1275 26.9295 27.5062C27.053 27.885 27.1629 28.404 27.259 29.0632C27.3551 29.7225 27.41 30.508 27.4238 31.4197C27.4375 32.3315 27.4032 33.3134 27.3208 34.3654C27.2384 35.4174 26.9912 37.4092 26.5793 40.3409C26.1675 43.2724 26.0095 45.0538 26.1057 45.6851C26.2017 46.3163 26.2567 46.8213 26.2704 47.2C26.2841 47.5787 26.2773 47.8032 26.2498 47.8733C26.2223 47.9434 26.2292 48.0136 26.2704 48.0837C26.3116 48.1538 26.3459 48.259 26.3734 48.3993C26.4009 48.5395 26.3555 48.663 26.2374 48.7696C26.1221 48.8734 25.886 48.9253 25.529 48.9253C25.1719 48.9253 24.9042 48.8902 24.7257 48.8201C24.5472 48.7499 24.1559 48.7149 23.5518 48.7149C22.9476 48.7149 22.5055 48.7752 22.2254 48.8958C21.9426 49.0137 21.6267 49.1315 21.278 49.2493C20.9265 49.3699 20.6848 49.4204 20.553 49.4008C20.424 49.3784 20.3388 49.3251 20.2976 49.2409C20.2564 49.1567 20.1672 49.0656 20.0299 48.9674C19.8926 48.8692 19.8171 48.757 19.8034 48.6307C19.7896 48.5045 19.8061 48.4203 19.8528 48.3782C19.9022 48.3362 19.9434 48.2029 19.9764 47.9785C20.0121 47.754 20.0299 47.3893 20.0299 46.8844C20.0299 46.3794 19.4327 44.9978 18.2381 42.7394C17.0436 40.4811 16.151 38.7909 15.5606 37.6687C14.9703 36.5466 14.3524 35.3823 13.7071 34.176L12.739 32.3665L11.9688 32.7369C11.4525 32.9809 11.1737 33.11 11.1326 33.124L11.0708 33.145L11.0626 33.1577L11.0502 33.166L11.0379 33.1745L11.0296 33.1871L10.9884 33.2082L10.9472 33.2292H10.8649L10.8566 33.2166L10.8443 33.2082L10.8319 33.1997L10.8237 33.1871L10.8154 33.1745L10.8031 33.166V33.0399L10.8154 33.0314L10.8237 33.0188L10.8319 33.0062L10.8443 32.9977L10.8649 32.9556L10.8855 32.9136L10.8978 32.9052L10.906 32.8926L10.9143 32.8799L10.9266 32.8715L10.939 32.8631L10.9472 32.8505L10.9555 32.8378C10.9637 32.8322 11.1943 32.591 11.6475 32.114L12.3271 31.3987L12.3477 31.3566L12.3683 31.3145L12.3807 31.3061L12.3889 31.2935L12.3807 31.2809L12.3683 31.2724L12.356 31.264L12.3477 31.2514L12.3395 31.2388L12.3271 31.2304L12.3065 31.1462L12.2859 31.062L12.2653 31.02L12.2447 30.9779L12.2324 30.9694L12.2241 30.9569L12.2159 30.9442L12.2035 30.9358L12.1912 30.9274L12.183 30.9148L12.1747 30.9022L12.1624 30.8937L12.15 30.9022C12.1445 30.9105 12.1143 30.9288 12.0594 30.9569C12.0045 30.9849 11.8878 30.9849 11.7092 30.9569C11.5308 30.9288 11.3935 30.8726 11.2973 30.7885C11.2012 30.7044 11.123 30.602 11.0626 30.4813C10.9994 30.3635 10.9678 30.2485 10.9678 30.1363C10.9678 30.0241 10.9678 29.8277 10.9678 29.5471C10.9678 29.2666 10.9857 29.1193 11.0214 29.1053C11.0543 29.0912 11.0818 29.0422 11.1038 28.958C11.123 28.8739 11.0571 28.6775 10.906 28.3688C10.755 28.0603 10.5875 27.8709 10.4035 27.8008C10.2168 27.7307 10.1399 27.5974 10.1728 27.401C10.2085 27.2046 10.2676 27.0433 10.35 26.9171C10.4323 26.7909 10.538 26.7025 10.6671 26.652C10.7989 26.6043 10.9815 26.5903 11.2149 26.6099C11.4484 26.6323 11.5679 26.7488 11.5733 26.9592C11.5815 27.1696 11.6544 27.415 11.7916 27.6956C11.929 27.9761 12.021 28.1192 12.0676 28.1248C12.117 28.1332 12.2379 28.0883 12.4301 27.9901C12.6223 27.892 12.7761 27.7966 12.8915 27.704C13.0095 27.6142 13.1853 27.3168 13.4187 26.8119C13.6521 26.3069 13.8828 25.8749 14.1107 25.5158C14.3359 25.1595 14.5831 24.7808 14.8521 24.3796C15.1186 23.9812 15.3437 23.6446 15.5277 23.3697C15.7145 23.0976 15.8737 22.817 16.0055 22.5281C16.1346 22.242 16.3913 21.7061 16.7758 20.9206C17.1602 20.1351 17.5584 19.3706 17.9703 18.6272C18.3823 17.8838 18.6198 17.484 18.683 17.4279C18.7434 17.3718 18.7845 17.3157 18.8065 17.2596C18.8257 17.2035 18.9493 17.1081 19.1773 16.9734C19.4024 16.8416 19.6661 16.7476 19.9681 16.6915C20.2702 16.6354 20.4899 16.5863 20.6272 16.5442C20.7645 16.5021 20.9361 16.3969 21.1421 16.2286C21.348 16.0603 21.4949 15.8597 21.5828 15.6269L21.7188 15.2818L21.7311 15.1976L21.7394 15.1135L21.657 15.105C21.602 15.0967 21.4716 15.0644 21.2656 15.0082C21.0597 14.9522 20.9224 14.8862 20.8537 14.8105C20.7851 14.7319 20.7068 14.6716 20.6189 14.6295C20.5283 14.5874 20.4487 14.4893 20.38 14.335C20.3114 14.1807 20.2702 13.9492 20.2564 13.6407C20.2427 13.3321 20.2537 13.1217 20.2894 13.0094L20.3388 12.8411L20.38 12.8327L20.4212 12.8201L20.7919 12.7359C21.0391 12.6798 21.7119 12.6518 22.8104 12.6518C23.9088 12.6518 24.5198 12.6588 24.6433 12.6728L24.8287 12.6938L24.8905 12.7065L24.9523 12.7148L24.9605 12.6728L24.9729 12.6307L24.9935 12.5465L25.0141 12.4624L25.0264 12.3782L25.0347 12.294L24.9729 12.2857C24.9317 12.2772 24.8837 12.259 24.8287 12.231L24.7463 12.1889L24.6845 12.1678L24.6228 12.1468L24.5816 12.1257L24.5404 12.1047L24.5321 12.0921L24.5198 12.0836L24.5074 12.0753L24.4992 12.0626H24.6228L24.6845 12.0836L24.7463 12.1047L24.8081 12.1257C24.8493 12.1398 24.8905 12.1538 24.9317 12.1678L24.9935 12.1889L25.0347 12.2015L25.0759 12.2099L25.0841 12.1678L25.0965 12.1257L25.1171 12.0206L25.1377 11.9153L25.15 11.8312L25.1582 11.747L25.0965 11.7386L25.0347 11.726L24.9729 11.7049C24.9317 11.6909 24.8425 11.6628 24.7051 11.6208C24.5678 11.5787 24.3207 11.5156 23.9637 11.4314C23.6067 11.3473 23.2223 11.2982 22.8104 11.2841C22.3984 11.2701 22.062 11.2841 21.8011 11.3262C21.5402 11.3683 21.2656 11.4384 20.9773 11.5366L20.5448 11.6839L20.5036 11.7049L20.4624 11.726L20.4212 11.7386L20.38 11.747V11.9153L20.4419 11.9069L20.5036 11.8943L20.586 11.8732L20.6684 11.8522L20.7096 11.8312C20.7371 11.8172 20.7782 11.8031 20.8331 11.7891L20.9155 11.7681L20.9567 11.747C20.9842 11.733 21.0597 11.7217 21.1833 11.7134L21.3686 11.7049V11.7891L21.2862 11.7975L21.2039 11.8101L21.1421 11.8312L21.0803 11.8522L21.0185 11.8732L20.9567 11.8943L20.9485 11.9069L20.9361 11.9153L20.9238 11.9069L20.9155 11.8943L20.9073 11.8817L20.8949 11.8732L20.8826 11.8817L20.8743 11.8943L20.8661 11.9069C20.8578 11.9125 20.7755 11.9434 20.6189 11.9995C20.4597 12.0556 20.3773 12.1047 20.3718 12.1468L20.3594 12.2099L20.3471 12.3361L20.3388 12.4624H20.3182L20.2894 11.9238C20.2675 11.5675 20.3526 11.242 20.5448 10.9475C20.7371 10.6529 20.9842 10.3794 21.2862 10.1269C21.5883 9.87444 21.7805 9.72717 21.8629 9.68506C21.9453 9.64296 22.0689 9.62892 22.2337 9.64296C22.3984 9.65699 22.5495 9.68506 22.6868 9.72717C22.824 9.76921 22.9614 9.76222 23.0986 9.70609C23.236 9.65001 23.4213 9.62892 23.6547 9.64296C23.8882 9.65699 24.0845 9.7103 24.2438 9.80288C24.4003 9.89263 24.5816 10.0568 24.7875 10.2952C24.9935 10.5337 25.1445 10.723 25.2406 10.8633C25.3367 11.0036 25.3986 11.1649 25.426 11.3473C25.4534 11.5296 25.4328 11.7821 25.3642 12.1047C25.2955 12.4273 25.3024 12.6447 25.3848 12.7569C25.4672 12.8692 25.4878 13.1146 25.4466 13.4934C25.4054 13.8721 25.3299 14.1807 25.22 14.4191C25.1102 14.6576 24.9908 14.8077 24.8617 14.8694C24.7299 14.9339 24.5541 14.9704 24.3344 14.9788ZM21.0885 11.7806C21.0831 11.7723 21.0831 11.7638 21.0885 11.7554C21.0968 11.7498 21.1009 11.754 21.1009 11.7681C21.1009 11.7821 21.0968 11.7863 21.0885 11.7806ZM26.7647 18.522L26.7853 18.4799V18.543C26.7853 18.5851 26.7578 18.7254 26.7029 18.9638C26.648 19.2023 26.5244 19.6302 26.3322 20.2473C26.14 20.8645 25.9409 21.3975 25.7349 21.8464C25.529 22.2953 25.3299 22.667 25.1377 22.9615C24.9454 23.2561 24.804 23.4455 24.7134 23.5296C24.6255 23.6138 24.5788 23.6699 24.5733 23.6979C24.5651 23.726 24.4992 23.8101 24.3756 23.9504C24.252 24.0907 24.0571 24.2618 23.7907 24.4638C23.5216 24.6686 23.2497 24.8482 22.9751 25.0024C22.7005 25.1567 22.4945 25.2409 22.3572 25.2549C22.2199 25.269 21.8904 25.21 21.3686 25.0782C20.8469 24.9435 20.5613 24.7359 20.5118 24.4554L20.4419 24.0346V23.6979L20.4542 23.7063L20.4624 23.719L20.4706 23.7316L20.483 23.74L20.4954 23.7484L20.5036 23.761L20.5118 23.7737L20.5242 23.7821L20.5365 23.7905L20.5448 23.8031L20.553 23.8157L20.5654 23.8242L20.5777 23.8326L20.586 23.8452L20.5942 23.8578L20.6066 23.8663L20.6189 23.8747L20.6272 23.8873L20.6354 23.8999L20.6478 23.9083L20.6601 23.9167L20.6684 23.9294L21.0803 24.2239C21.3549 24.4203 21.5746 24.5606 21.7394 24.6447C21.9041 24.7289 22.1513 24.7008 22.4808 24.5606C22.8104 24.4203 23.1426 24.2282 23.4776 23.9841C23.8154 23.7372 24.1079 23.4805 24.355 23.214C24.6022 22.9475 24.7299 22.8002 24.7381 22.7721C24.7436 22.7441 24.7601 22.73 24.7875 22.73C24.815 22.73 24.977 22.4776 25.2736 21.9726C25.5674 21.4676 25.8104 21.0048 26.0027 20.584C26.1949 20.1632 26.3665 19.7213 26.5175 19.2584C26.6686 18.7955 26.751 18.5501 26.7647 18.522ZM19.9681 42.9919L19.9887 43.0971V43.3075L19.9681 43.2655L19.9476 43.2234L19.9351 43.2149L19.927 43.2023L19.9187 43.1897L19.9064 43.1812L19.894 43.1729L19.8858 43.1602L19.8775 43.1476L19.8652 43.1392L19.8446 43.0971L19.824 43.0551L19.8034 43.013L19.7828 42.9708L19.7622 42.9077C19.7484 42.8657 19.6523 42.6693 19.4738 42.3186L19.2061 41.7926L19.1937 41.7842L19.1855 41.7716V41.7505L19.1649 41.7421L19.1443 41.7295V41.7084H19.1237L19.1114 41.7169L19.1031 41.7295L19.0949 41.7421L19.0825 41.7505L19.0619 41.7926L19.0413 41.8347L19.0207 41.8768L19.0001 41.9188L18.9878 41.9273L18.9795 41.9399L18.9713 41.9525L18.9589 41.9609L18.9466 41.9694L18.9383 41.982L18.9301 41.9946L18.9178 42.003L18.9054 42.0114L18.8972 42.0241L18.856 42.0451L18.8148 42.0661L18.823 42.0788L18.8354 42.0872L18.8477 42.0956L18.856 42.1082L18.8477 42.1209L18.8354 42.1292L18.8148 42.1713L18.7942 42.2134L18.7818 42.2218L18.7736 42.2345L18.7653 42.2471L18.753 42.2555L18.7406 42.2639L18.7324 42.2765L18.7118 42.2892L18.6912 42.2976L19.3832 43.8125C19.8418 44.8224 20.078 45.3414 20.0917 45.3695L20.1123 45.4115L20.1329 45.4957L20.1535 45.5799V45.7482L20.1329 45.7061L20.1123 45.664L20.1 45.6556L20.0917 45.643L20.0834 45.6304L20.0711 45.6219L20.0505 45.5589L20.0299 45.4957L20.0093 45.4536L19.9887 45.4115L19.9681 45.3695C19.9544 45.3414 19.1649 43.7213 17.5996 40.5092C16.0344 37.297 14.9771 35.1229 14.4279 33.9866L13.6041 32.2824L13.5835 32.2403L13.5629 32.1982V32.114L13.5752 32.1057L13.5835 32.093L13.5917 32.0804L13.6041 32.072L13.6164 32.0636L13.6247 32.0509L13.6659 32.0299L13.7071 32.0089L13.7153 31.9962L13.7277 31.9878L13.74 31.9794L13.7482 31.9668L13.7565 31.9542L13.7688 31.9457L13.7812 31.9373L13.7894 31.9247L13.7977 31.9121L13.81 31.9036L13.8306 31.9457L13.8512 31.9878L13.8718 32.0299L13.8924 32.072L13.913 32.114L13.9336 32.1561L14.3043 32.9346C14.5514 33.4536 14.6791 33.7271 14.6874 33.7552L14.6956 33.7973H14.8192L14.8274 33.7552L14.8398 33.7131L14.8521 33.7215L14.8604 33.7342L14.9016 33.7552L14.9428 33.7762H15.1075L15.1487 33.7889L15.1899 33.7973L15.1817 33.7552L15.1693 33.7131L15.157 33.7047L15.1487 33.6921L15.1405 33.6794L15.1281 33.6711L15.1158 33.6626L15.1075 33.65L15.0993 33.6374L15.0869 33.629L15.0663 33.5869C15.0526 33.5588 14.8879 33.2152 14.572 32.5559C14.2563 31.8966 14.1986 31.4716 14.399 31.2809C14.5968 31.0929 14.7437 30.947 14.8398 30.8432C14.9359 30.7366 14.9977 30.6805 15.0252 30.6749C15.0526 30.6665 15.1213 30.6062 15.2311 30.4939L15.3959 30.3257L15.4371 30.313L15.4783 30.3046L15.47 30.2204L15.4577 30.1363L15.4453 30.031L15.4371 29.9259L15.3959 29.9343L15.3547 29.9469L15.3135 29.9679L15.2723 29.989L15.2311 30.01L15.1899 30.031L15.1075 30.0521C15.0526 30.0662 14.7849 30.1854 14.3043 30.4098L13.5835 30.7465L13.5423 30.7675L13.5011 30.7885H13.4187L13.4105 30.7759L13.3981 30.7675L13.3775 30.7254L13.3569 30.6833L13.3446 30.6749L13.3363 30.6622L13.3281 30.6497L13.3157 30.6412L13.2951 30.5992L13.2745 30.5571L13.2622 30.515L13.2539 30.4729L13.3693 30.4518C13.4434 30.4379 13.5533 30.1671 13.6988 29.6397C13.8416 29.1151 13.9885 28.7406 14.1396 28.5162C14.2906 28.2917 14.616 27.8948 15.1158 27.3253C15.6183 26.7586 15.9245 26.4051 16.0344 26.2648C16.1442 26.1246 16.2815 25.9072 16.4463 25.6126C16.611 25.3181 16.7277 25.0725 16.7964 24.8762C16.865 24.6798 17.1507 24.2141 17.6532 23.4791C18.153 22.7413 18.5058 22.2279 18.7118 21.939C18.9178 21.6528 19.0372 21.5167 19.0702 21.5308C19.1058 21.5448 19.2198 21.9516 19.4121 22.7511C19.6043 23.5506 19.6867 24.1468 19.6592 24.5395C19.6317 24.9323 19.6413 25.1735 19.688 25.2633C19.7375 25.3559 19.824 25.4303 19.9476 25.4863C20.0711 25.5425 20.1672 25.5747 20.2358 25.5831C20.3045 25.5887 20.0945 26.0895 19.6057 27.0854C19.1196 28.0813 18.8422 29.0071 18.7736 29.8627C18.7049 30.7184 18.6843 31.6301 18.7118 32.598C18.7392 33.5658 18.7942 34.5127 18.8766 35.4384C18.9589 36.3642 19.1031 37.5284 19.3091 38.9311C19.515 40.3338 19.6729 41.3438 19.7828 41.9609C19.8926 42.5781 19.9544 42.9218 19.9681 42.9919ZM25.7967 32.7242L26.0027 29.2526V31.2304C26.0027 32.5489 25.9272 34.0568 25.7761 35.7541C25.6251 37.4513 25.4672 38.84 25.3024 39.9201C25.1377 41.0001 24.9454 41.989 24.7257 42.8867C24.506 43.7844 24.2767 44.5699 24.0378 45.2432C23.7962 45.9165 23.4419 46.284 22.9751 46.3458C22.5083 46.4103 22.2199 46.4496 22.1101 46.4636L21.9453 46.4846H21.5746L21.6158 46.4636L21.657 46.4425L21.6982 46.4215L21.7394 46.4005L21.7805 46.3794L21.8217 46.3584L21.83 46.3458L21.8423 46.3373L21.8547 46.3289L21.8629 46.3163L21.8712 46.3037L21.8835 46.2952L21.8959 46.2868C21.9014 46.2784 21.9247 46.2672 21.9659 46.2532C22.0071 46.2392 22.1485 46.1297 22.3902 45.9249C22.6291 45.7229 22.8721 45.4607 23.1192 45.1381C23.3664 44.8154 23.5861 44.4577 23.7783 44.065C23.9706 43.6722 24.1765 43.1532 24.3962 42.508C24.6159 41.8628 24.8081 41.1334 24.9729 40.3198C25.1377 39.5062 25.2818 38.6155 25.4054 37.6477C25.529 36.6798 25.6594 35.0386 25.7967 32.7242ZM19.824 38.4051L19.7004 37.332L20.1123 39.2257C20.3869 40.4881 20.6025 41.3606 20.759 41.8431C20.9183 42.3284 21.0734 42.7114 21.2245 42.9919C21.3755 43.2724 21.6501 43.3777 22.0483 43.3075C22.4465 43.2374 22.7074 43.1981 22.8309 43.1897L23.0163 43.1812L23.0081 43.2234L22.9957 43.2655L22.9834 43.2738L22.9751 43.2865L22.9669 43.2991L22.9545 43.3075L22.9422 43.3159L22.9339 43.3286L22.9257 43.3412L22.9133 43.3496L22.901 43.358L22.8927 43.3706L22.8845 43.3833L22.8721 43.3916L22.8598 43.4338L22.8515 43.4759L22.6373 43.6652C22.4918 43.7914 22.4149 43.8686 22.4067 43.8967C22.4012 43.9247 22.2611 44.0201 21.9865 44.1828C21.7119 44.3427 21.5608 44.4297 21.5334 44.4437L21.4922 44.4647L21.4304 44.4773L21.3686 44.4858L21.3604 44.4437C21.3522 44.4157 21.2588 44.1772 21.0803 43.7283C20.9018 43.2794 20.7233 42.7464 20.5448 42.1292C20.3663 41.5121 20.2222 40.9159 20.1123 40.3409C20.0024 39.7657 19.9064 39.1205 19.824 38.4051ZM25.6731 42.7184L26.0439 41.1614L25.982 41.8557C25.9408 42.3186 25.8173 43.0901 25.6114 44.1702C25.4054 45.2502 25.312 45.8632 25.3313 46.0091C25.3532 46.1578 25.4219 46.3485 25.5372 46.5814C25.6553 46.8114 25.7212 46.9475 25.7349 46.9896L25.7555 47.0527L25.7761 47.0948L25.7967 47.1368L25.8173 47.2L25.8379 47.2631L25.8503 47.3052L25.8585 47.3472H25.7761L25.7679 47.3052L25.7555 47.2631L25.7349 47.221L25.7143 47.1789L25.702 47.1705L25.6937 47.1579L25.6855 47.1453L25.6731 47.1368L25.6608 47.1285L25.6526 47.1158L25.6443 47.1032L25.632 47.0948L25.6196 47.0864C25.6141 47.0779 25.5729 47.0415 25.496 46.977C25.4219 46.9152 25.2379 46.8395 24.944 46.7497L24.4992 46.6109L24.458 46.5982L24.4168 46.5898L24.425 46.5477L24.4374 46.5056L24.458 46.4636C24.4717 46.4355 24.5129 46.3443 24.5816 46.1901C24.6502 46.0357 24.7875 45.6781 24.9935 45.117C25.1994 44.5559 25.426 43.7564 25.6731 42.7184Z" fill="black" stroke="black" stroke-width="0.5"/>
<path fill-rule="evenodd" clip-rule="evenodd" d="M19.9679 42.9919L19.9884 43.0971V43.3075L19.9679 43.2655L19.9472 43.2234L19.9349 43.2149L19.9266 43.2023L19.9184 43.1897L19.906 43.1813L19.8937 43.1729L19.8854 43.1602L19.8772 43.1476L19.8648 43.1392L19.8442 43.0971L19.8236 43.055L19.803 43.013L19.7824 42.9709L19.7618 42.9077C19.7481 42.8657 19.652 42.6693 19.4736 42.3186L19.2058 41.7926L19.1934 41.7842L19.1852 41.7716V41.7506L19.177 41.7295C19.1687 41.7155 19.1605 41.7084 19.1523 41.7084H19.144L19.1358 41.6664C19.1275 41.6383 18.8076 40.9931 18.176 39.7307C17.5444 38.4683 17.1915 37.7557 17.1174 37.593C17.0405 37.4331 16.7 36.7598 16.0959 35.5731L15.1896 33.7973L15.1814 33.7552L15.169 33.7131L15.1567 33.7047L15.1484 33.6921L15.1402 33.6794L15.1278 33.6711L15.1155 33.6626L15.1072 33.65L15.099 33.6374L15.0866 33.629L15.0661 33.5869C15.0523 33.5589 14.8875 33.2152 14.5717 32.5559C14.256 31.8967 14.1983 31.4716 14.3987 31.2809C14.5965 31.0929 14.7434 30.9471 14.8395 30.8432C14.9356 30.7366 14.9974 30.6805 15.0249 30.6749C15.0523 30.6665 15.121 30.6062 15.2308 30.494L15.3956 30.3256L15.4368 30.313L15.478 30.3046L15.4697 30.2204L15.4574 30.1363L15.445 30.0311L15.4368 29.9259L15.3956 29.9343L15.3544 29.9469L15.3132 29.9679L15.272 29.989L15.2308 30.01L15.1896 30.0311L15.1072 30.0521C15.0523 30.0661 14.7846 30.1854 14.304 30.4098L13.5831 30.7465L13.5419 30.7675L13.5008 30.7885H13.4184L13.4102 30.7759L13.3978 30.7675L13.3772 30.7254L13.3566 30.6833L13.3443 30.6749L13.336 30.6623L13.3278 30.6497L13.3154 30.6412L13.2948 30.5991L13.2742 30.5571L13.2619 30.515L13.2537 30.4729L13.369 30.4519C13.4431 30.4378 13.553 30.1671 13.6985 29.6397C13.8413 29.1151 13.9882 28.7406 14.1392 28.5161C14.2903 28.2918 14.6157 27.8947 15.1155 27.3253C15.618 26.7586 15.9242 26.4051 16.0341 26.2648C16.1439 26.1246 16.2812 25.9072 16.446 25.6126C16.6108 25.3181 16.7274 25.0725 16.7961 24.8762C16.8648 24.6798 17.1503 24.2141 17.6529 23.4791C18.1527 22.7413 18.5055 22.2279 18.7115 21.939C18.9175 21.6528 19.0369 21.5167 19.0699 21.5308C19.1056 21.5448 19.2195 21.9516 19.4118 22.7511C19.604 23.5506 19.6864 24.1468 19.6589 24.5395C19.6314 24.9323 19.641 25.1736 19.6877 25.2633C19.7371 25.3559 19.8236 25.4302 19.9472 25.4864C20.0708 25.5424 20.1669 25.5747 20.2356 25.5832C20.3042 25.5888 20.0942 26.0895 19.6054 27.0854C19.1193 28.0814 18.8419 29.0071 18.7733 29.8628C18.7046 30.7184 18.6841 31.6301 18.7115 32.598C18.7389 33.5658 18.7939 34.5127 18.8763 35.4384C18.9587 36.3642 19.1028 37.5284 19.3088 38.9311C19.5147 40.3338 19.6726 41.3438 19.7824 41.961C19.8923 42.5781 19.9541 42.9218 19.9679 42.9919Z" fill="#FEFEFE" stroke="#FEFEFE" stroke-width="0.5"/>
<path fill-rule="evenodd" clip-rule="evenodd" d="M35.0766 18.3872L35.0849 18.3746L35.0932 18.3619L35.1055 18.3535L35.1178 18.3619L35.1261 18.3746L35.1343 18.3872L35.1467 18.3956L35.1673 18.4587L35.1879 18.5219L35.4968 19.5949C35.7028 20.3103 35.8126 20.696 35.8263 20.7521L35.8469 20.8363L35.8675 20.8994L35.8881 20.9625L35.9005 20.9836L35.9087 21.0046L36.2712 22.3722C36.5101 23.284 36.6364 23.7679 36.6502 23.824L36.6708 23.9082L36.6831 23.9503L36.6914 23.9923H32.9841L32.9924 23.9503L33.0047 23.9082L33.0253 23.845C33.0391 23.803 33.1421 23.4804 33.3343 22.8772L33.6226 21.9725L33.6432 21.9093L33.6638 21.8462L33.6762 21.8252L33.6844 21.8042V21.7831L33.6926 21.7705L33.705 21.7621L33.7256 21.6989L33.7462 21.6358L34.2281 20.1714C34.5522 19.198 34.7389 18.693 34.7883 18.6565C34.835 18.6228 34.8624 18.6032 34.8707 18.5976L34.879 18.585L34.8872 18.5724L34.8996 18.5639L34.9119 18.5555L34.9202 18.5429L34.9283 18.5302L34.9408 18.5219L34.9531 18.5134L34.9613 18.5008L34.9695 18.4882L34.9819 18.4798L34.9943 18.4713L35.0025 18.4587L35.0107 18.4461L35.0231 18.4377L35.0354 18.4293L35.0437 18.4166L35.0519 18.4041L35.0643 18.3956L35.0766 18.3872Z" fill="#FEFEFE" stroke="#FEFEFE" stroke-width="0.5"/>
<path fill-rule="evenodd" clip-rule="evenodd" d="M41.2143 18.0927L41.2225 18.0801H41.3049L41.3132 18.0927L41.3255 18.1012L41.3379 18.1095L41.3461 18.1222L41.3543 18.1348L41.3667 18.1432L41.3873 18.2063L41.4079 18.2695L41.7374 19.4267C41.9571 20.1981 42.0738 20.605 42.0876 20.647L42.1082 20.7101L42.1288 20.7733L42.1493 20.8364H42.1699L42.1782 20.9205L42.1905 21.0047L42.5406 22.3302C42.7741 23.2139 42.8977 23.6768 42.9114 23.7189L42.9319 23.782L42.9443 23.8451L42.9525 23.9083H39.3689L39.3772 23.8241L39.3895 23.74L39.4101 23.6979C39.4238 23.6698 39.568 23.2139 39.8426 22.3302C40.1172 21.4466 40.2586 20.9556 40.2669 20.8574L40.2751 20.7101V20.668H40.3163C40.3437 20.668 40.3575 20.6541 40.3575 20.626V20.5839L40.514 20.121C40.6156 19.8124 40.7351 19.4547 40.8724 19.0479C41.0097 18.6412 41.0852 18.4238 41.099 18.3957L41.1195 18.3536L41.1401 18.2695L41.1607 18.1853L41.1813 18.1432L41.2019 18.1012L41.2143 18.0927Z" fill="#FEFEFE" stroke="#FEFEFE" stroke-width="0.5"/>
<path fill-rule="evenodd" clip-rule="evenodd" d="M35.9499 20.9966L35.9911 20.9839L35.9993 20.9713L36.0117 20.9629L36.024 20.9713L36.0323 20.9839L36.0405 20.9966L36.0529 21.0049L36.0652 20.9966L36.0735 20.9839H36.1558L36.1764 20.9966L36.197 21.0049L36.6296 22.4988C36.9179 23.4947 37.117 23.9927 37.2268 23.9927H37.3916L37.3833 24.1399C37.3751 24.2381 37.3573 24.3223 37.3298 24.3924C37.3023 24.4626 37.2268 24.5678 37.1032 24.7081C36.9796 24.8483 36.8396 24.9774 36.6831 25.0952C36.5238 25.2158 36.3069 25.3253 36.0323 25.4234C35.7576 25.5216 35.4418 25.5847 35.0849 25.6128C34.7279 25.6408 34.3777 25.6198 34.0345 25.5497C33.6912 25.4795 33.4097 25.3884 33.1901 25.2762C32.9704 25.1639 32.7809 25.0194 32.6216 24.8427C32.4651 24.6687 32.3634 24.4836 32.3168 24.2872L32.2427 23.9927H32.4486C32.5859 23.9927 32.7617 23.6631 32.9759 23.0038C33.1873 22.3445 33.2999 21.9939 33.3136 21.9518L33.3342 21.8886L33.3548 21.8465L33.3754 21.8045L33.396 21.7414L33.4166 21.6782L33.4289 21.6572L33.4372 21.6361L33.5196 21.6446L33.6019 21.6572L33.6102 21.6698L33.6225 21.6782L33.6431 21.7414L33.6637 21.8045H33.6843L33.6761 21.8255L33.6637 21.8465L33.6431 21.9097L33.6225 21.9728L33.3342 22.8775C33.142 23.4807 33.039 23.8033 33.0253 23.8454L33.0047 23.9085L32.9923 23.9506L32.9841 23.9927H36.6913L36.6831 23.9506L36.6707 23.9085L36.6502 23.8244C36.6364 23.7682 36.51 23.2843 36.2712 22.3726L35.9087 21.0049L35.9499 20.9966Z" fill="black" stroke="black" stroke-width="0.5"/>
<path fill-rule="evenodd" clip-rule="evenodd" d="M20.9483 50.0741L20.9565 50.0615H21.3684L21.4096 50.0825L21.4508 50.1036L21.459 50.1162L21.4714 50.1246L21.492 50.1667L21.5126 50.2088V52.8599L21.492 52.9019L21.4714 52.944L21.459 52.9525L21.4508 52.965L21.389 52.9861L21.3272 53.0072H20.9977L20.9565 52.9861L20.9153 52.965L20.9071 52.9525L20.8947 52.944L20.8741 52.9019L20.8535 52.8599L20.8329 52.4601L20.8123 52.0603L20.8 52.0519L20.7917 52.0393H20.6682L20.627 52.0603L20.5858 52.0814L20.5446 52.1024C20.5171 52.1165 20.373 52.1796 20.1121 52.2918C19.8512 52.404 19.5697 52.5022 19.2677 52.5863C18.9656 52.6705 18.643 52.7196 18.2997 52.7336C17.9564 52.7477 17.6955 52.7336 17.5171 52.6915C17.3386 52.6495 17.112 52.5681 16.8374 52.4475C16.5628 52.3296 16.4255 52.2567 16.4255 52.2287C16.4255 52.2006 16.3843 52.1613 16.3019 52.1109L16.1783 52.0393L16.1371 52.0183L16.0959 51.9972L16.0877 51.9846L16.0753 51.9762L16.063 51.9677L16.0548 51.9551L16.0465 51.9425L16.0342 51.9341V51.8499L16.0465 51.8415L16.0548 51.8289L16.0959 51.8079L16.1371 51.7868L16.1454 51.7742C16.1536 51.7686 16.2127 51.7237 16.3225 51.6395C16.4323 51.5554 16.6699 51.4179 17.0351 51.2271C17.3976 51.0392 17.7161 50.9031 17.9907 50.819L18.4026 50.6927L18.485 50.6801L18.5674 50.6716L18.7322 50.6633L18.897 50.6506L18.9052 50.638L18.9176 50.6296H18.9381L19.3501 50.6801C19.6247 50.7166 19.865 50.7769 20.0709 50.861C20.2769 50.9452 20.3867 50.9943 20.4005 51.0083C20.4142 51.0223 20.4348 51.0364 20.4623 51.0504L20.5034 51.0714L20.5116 51.0841L20.524 51.0925L20.5363 51.1009L20.5446 51.1135L20.5858 51.1346L20.627 51.1556L20.6353 51.1682L20.6476 51.1767L20.6599 51.185L20.6682 51.1977L20.6765 51.2103L20.6888 51.2187L20.7011 51.2271L20.7094 51.2398L20.7176 51.2524L20.7299 51.2608L20.7424 51.2692L20.7505 51.2818L20.7094 51.3029L20.6682 51.3239L20.6064 51.345L20.5446 51.366L20.4417 51.3871C20.373 51.4011 20.1533 51.4431 19.7826 51.5133L19.2265 51.6185L19.1441 51.6395L19.0617 51.6606L18.9999 51.6816L18.9381 51.7026H19.2677L19.9762 51.6732C20.4512 51.6508 20.6929 51.6423 20.7011 51.6479C20.7066 51.6564 20.7231 51.6606 20.7505 51.6606H20.7917L20.8 51.6479L20.8123 51.6395L20.8329 50.9242L20.8535 50.2088L20.8741 50.1667L20.8947 50.1246L20.9071 50.1162L20.9153 50.1036L20.9236 50.091L20.9359 50.0825L20.9483 50.0741Z" fill="black" stroke="black" stroke-width="0.5"/>
<path fill-rule="evenodd" clip-rule="evenodd" d="M40.3372 20.5924L40.3578 20.584L39.8964 22.1199C39.5861 23.1439 39.4241 23.6699 39.4104 23.6979L39.3898 23.74L39.3774 23.8242L39.3692 23.9083H42.9528L42.9446 23.8452L42.9322 23.7821L42.9116 23.719C42.8979 23.6769 42.7743 23.214 42.5409 22.3303L42.1908 21.0048L42.1784 20.9206L42.1702 20.8364H42.1908L42.2114 20.7944L42.232 20.7523L42.2443 20.7438L42.2526 20.7313L42.2608 20.7186L42.2732 20.7102L42.2855 20.7186L42.2938 20.7313L42.3349 20.7523L42.3761 20.7733L42.4173 20.786L42.4585 20.7944L42.4668 20.8785L42.4791 20.9627L42.9034 22.4355C43.1835 23.4174 43.399 23.9083 43.5501 23.9083H43.7767L43.7684 23.9714L43.7561 24.0346L43.7355 24.1187C43.7217 24.1749 43.7011 24.238 43.6737 24.3081C43.6462 24.3783 43.5913 24.4624 43.5089 24.5606C43.4265 24.6588 43.3071 24.7752 43.1506 24.9098C42.9913 25.0417 42.7606 25.1637 42.4585 25.276C42.1565 25.3882 41.7789 25.4513 41.3257 25.4653C40.8727 25.4794 40.5568 25.4723 40.3784 25.4443C40.1999 25.4162 39.9733 25.3391 39.6987 25.2128C39.4241 25.0866 39.2017 24.9351 39.0314 24.7584C38.8584 24.5845 38.7444 24.4133 38.6895 24.245L38.6071 23.9925L38.5948 23.9841L38.5865 23.9714L38.5948 23.9588L38.6071 23.9504L38.7925 23.9083C38.9161 23.8803 39.1495 23.3613 39.4927 22.3513C39.836 21.3414 40.0118 20.8364 40.02 20.8364H40.0365C40.0447 20.8364 40.053 20.8154 40.0612 20.7733L40.0694 20.7102L40.1312 20.7186L40.193 20.7313L40.2013 20.7438L40.2136 20.7523L40.226 20.7438L40.2342 20.7313L40.2548 20.7186L40.2754 20.7102V20.6471L40.296 20.626C40.3097 20.612 40.3234 20.6008 40.3372 20.5924Z" fill="black" stroke="black" stroke-width="0.5"/>
<path fill-rule="evenodd" clip-rule="evenodd" d="M24.8613 49.9897L24.8696 49.9771H25.3226L25.3309 49.9897L25.3432 49.9981L25.3638 50.0402L25.3844 50.0823L25.3968 50.9449L25.4051 51.8076L25.4463 51.7992L25.4874 51.7865L25.5904 51.7234C25.6591 51.6813 25.8856 51.6673 26.27 51.6813C26.6545 51.6954 26.9703 51.7024 27.2175 51.7024H27.5882L27.5058 51.6813L27.4234 51.6603L27.341 51.6392L27.2587 51.6182L27.1557 51.5972C27.087 51.5832 26.8605 51.5411 26.476 51.4709L25.8993 51.3657L25.7963 51.3447L25.6934 51.3237L25.6316 51.3026L25.5698 51.2816L25.611 51.2605L25.6522 51.2395L25.6604 51.2269L25.6728 51.2184L25.6851 51.21L25.6934 51.1974L25.7016 51.1848L25.714 51.1764L25.7263 51.168L25.7346 51.1553L25.7428 51.1427L25.7551 51.1343L25.7675 51.1259L25.7757 51.1133L25.8169 51.0922L25.8581 51.0712L26.1465 50.9239C26.3387 50.8257 26.5104 50.7555 26.6614 50.7135C26.8124 50.6714 26.9703 50.6461 27.1351 50.6377L27.3822 50.6293H27.4028L27.4152 50.6377L27.4234 50.6504H27.4646L27.4729 50.6377L27.4852 50.6293L27.4976 50.6377L27.5058 50.6504H27.5882L27.5964 50.6377L27.6088 50.6293L27.6211 50.6377L27.6294 50.6504L27.6912 50.663L27.753 50.6714L28.2679 50.8061C28.6111 50.8986 28.964 51.0389 29.3264 51.2269C29.6917 51.4176 29.9114 51.5439 29.9855 51.6056C30.0624 51.6701 30.1146 51.7094 30.1421 51.7234L30.1832 51.7445L30.1915 51.7571L30.2038 51.7655L30.2162 51.7739L30.2244 51.7865L30.2327 51.7992L30.245 51.8076L30.2574 51.816L30.2656 51.8286L30.3068 51.8412L30.348 51.8496L30.3398 51.8917L30.3274 51.9338L30.3151 51.9422L30.3068 51.9549L30.2986 51.9675L30.2862 51.9759L30.2739 51.9843L30.2656 51.9969L30.2244 52.018L30.1832 52.039L30.175 52.0516C30.1668 52.0573 30.0569 52.1274 29.8455 52.2621C29.6313 52.3939 29.4006 52.5019 29.1534 52.5861C28.9063 52.6702 28.6111 52.7193 28.2679 52.7334C27.9246 52.7474 27.6156 52.7263 27.341 52.6702C27.0664 52.6142 26.7026 52.4879 26.2495 52.2915L25.5698 51.9969L25.4874 51.9843L25.4051 51.9759L25.3968 52.4177L25.3844 52.8596L25.3721 52.9017L25.3638 52.9438L25.3226 52.9522L25.2814 52.9648H24.8696L24.8613 52.9522L24.849 52.9438L24.8284 52.9017L24.8078 52.8596L24.7872 52.7965C24.7734 52.7544 24.7734 52.2915 24.7872 51.4078L24.8078 50.0823L24.8284 50.0402L24.849 49.9981L24.8613 49.9897Z" fill="black" stroke="black" stroke-width="0.5"/>
<path fill-rule="evenodd" clip-rule="evenodd" d="M24.973 11.7049L25.0347 11.7259L25.0965 11.7385L25.1583 11.747L25.15 11.8311L25.1377 11.9153L25.1171 12.0205L25.0965 12.1257L25.0841 12.1678L25.0759 12.2099L25.0347 12.2014L24.9935 12.1888L24.9317 12.1678C24.8905 12.1537 24.8493 12.1397 24.8081 12.1257L24.7463 12.1046L24.6846 12.0836L24.6228 12.0626H24.4992L24.5075 12.0752L24.5198 12.0836L24.5321 12.092L24.5404 12.1046L24.5816 12.1257L24.6228 12.1467L24.6846 12.1678L24.7463 12.1888L24.8287 12.2309C24.8837 12.259 24.9317 12.2771 24.973 12.2856L25.0347 12.294L25.0265 12.3782L25.0141 12.4623L24.9935 12.5465L24.973 12.6307L24.9605 12.6727L24.9523 12.7148L24.8905 12.7064L24.8287 12.6938L24.6434 12.6727C24.5198 12.6587 23.9088 12.6517 22.8104 12.6517C21.7119 12.6517 21.0392 12.6798 20.792 12.7358L20.4213 12.82L20.3801 12.8326L20.3389 12.8411V12.4623L20.3471 12.3361L20.3595 12.2099L20.3719 12.1467C20.3774 12.1046 20.4597 12.0555 20.619 11.9995C20.7755 11.9433 20.8579 11.9125 20.8662 11.9069L20.8744 11.8942L20.8826 11.8816L20.895 11.8732L20.9073 11.8816L20.9156 11.8942L20.9238 11.9069L20.9362 11.9153L20.9485 11.9069L20.9568 11.8942L21.0186 11.8732L21.0804 11.8522L21.1421 11.8311L21.2039 11.8101L21.101 11.7891L20.998 11.768H20.9156L20.8332 11.7891C20.7783 11.8031 20.7371 11.8171 20.7096 11.8311L20.6684 11.8522L20.5861 11.8732L20.5037 11.8942L20.4419 11.9069L20.3801 11.9153V11.747L20.4213 11.7385L20.4625 11.7259L20.5037 11.7049L20.5449 11.6838L20.9774 11.5366C21.2657 11.4384 21.5403 11.3683 21.8012 11.3262C22.0621 11.284 22.3985 11.2701 22.8104 11.284C23.2223 11.2981 23.6068 11.3472 23.9637 11.4314C24.3207 11.5155 24.5679 11.5787 24.7052 11.6207C24.8425 11.6628 24.9317 11.6909 24.973 11.7049ZM21.3069 11.7385L21.3687 11.7049V11.7891L21.3069 11.7806C21.2657 11.7722 21.2657 11.7582 21.3069 11.7385Z" fill="#FDFDFD" stroke="#FDFDFD" stroke-width="0.5"/>
<path fill-rule="evenodd" clip-rule="evenodd" d="M25.7966 32.7241L26.0025 29.2524V31.2302C26.0025 32.5488 25.927 34.0566 25.776 35.7539C25.625 37.4511 25.467 38.8398 25.3023 39.9199C25.1375 41 24.9453 41.9888 24.7256 42.8866C24.5059 43.7843 24.2766 44.5698 24.0377 45.2431C23.7961 45.9164 23.4418 46.2839 22.975 46.3456C22.5082 46.4101 22.2198 46.4494 22.11 46.4634L21.9452 46.4844H21.5745L21.6157 46.4634L21.6569 46.4424L21.6981 46.4214L21.7393 46.4003L21.7804 46.3793L21.8216 46.3582L21.8299 46.3456L21.8422 46.3372L21.8546 46.3288L21.8628 46.3161L21.8711 46.3035L21.8834 46.2951L21.8958 46.2867C21.9012 46.2782 21.9246 46.267 21.9658 46.253C22.007 46.239 22.1484 46.1296 22.39 45.9248C22.6289 45.7228 22.872 45.4605 23.1191 45.1379C23.3663 44.8153 23.586 44.4576 23.7782 44.0648C23.9704 43.672 24.1764 43.1531 24.3961 42.5078C24.6157 41.8626 24.808 41.1332 24.9728 40.3197C25.1375 39.5061 25.2817 38.6154 25.4052 37.6475C25.5289 36.6797 25.6593 35.0385 25.7966 32.7241Z" fill="#FBFBFB" stroke="#FBFBFB" stroke-width="0.5"/>
<path fill-rule="evenodd" clip-rule="evenodd" d="M26.7644 18.522L26.785 18.48V18.5431C26.785 18.5852 26.7575 18.7254 26.7026 18.9639C26.6477 19.2024 26.5241 19.6302 26.3319 20.2473C26.1397 20.8645 25.9405 21.3975 25.7346 21.8464C25.5286 22.2953 25.3296 22.667 25.1373 22.9615C24.9451 23.2562 24.8036 23.4455 24.7131 23.5296C24.6252 23.6138 24.5785 23.6699 24.573 23.698C24.5648 23.7261 24.4989 23.8102 24.3753 23.9504C24.2517 24.0907 24.0567 24.2618 23.7904 24.4638C23.5212 24.6686 23.2494 24.8482 22.9748 25.0025C22.7002 25.1568 22.4942 25.2409 22.3569 25.2549C22.2196 25.269 21.8901 25.2101 21.3683 25.0782C20.8466 24.9436 20.561 24.736 20.5115 24.4554L20.4415 24.0346V23.698L20.4539 23.7064L20.4621 23.719L20.4703 23.7317L20.4827 23.74L20.4951 23.7485L20.5033 23.7611L20.5115 23.7737L20.5239 23.7821L20.5362 23.7906L20.5445 23.8032L20.5527 23.8158L20.5651 23.8242L20.5774 23.8326L20.5857 23.8453L20.5939 23.8579L20.6063 23.8663L20.6186 23.8747L20.6269 23.8874L20.6351 23.9L20.6475 23.9084L20.6598 23.9168L20.6681 23.9294L21.08 24.224C21.3546 24.4204 21.5743 24.5606 21.7391 24.6448C21.9038 24.729 22.1509 24.7009 22.4805 24.5606C22.81 24.4204 23.1423 24.2282 23.4773 23.9841C23.8151 23.7373 24.1075 23.4805 24.3547 23.2141C24.6019 22.9475 24.7295 22.8002 24.7378 22.7722C24.7432 22.7442 24.7597 22.7301 24.7872 22.7301C24.8147 22.7301 24.9766 22.4776 25.2732 21.9727C25.5671 21.4677 25.8101 21.0048 26.0023 20.584C26.1945 20.1632 26.3662 19.7214 26.5172 19.2585C26.6683 18.7956 26.7506 18.5501 26.7644 18.522Z" fill="#FCFCFC" stroke="#FCFCFC" stroke-width="0.5"/>
<path fill-rule="evenodd" clip-rule="evenodd" d="M27.753 50.6294V50.6715L27.6912 50.6631L27.6294 50.6505L27.6212 50.6379L27.6088 50.6294L27.5965 50.6379L27.5882 50.6505H27.5058L27.4976 50.6379L27.4853 50.6294L27.4729 50.6379L27.4647 50.6505H27.4235L27.4152 50.6379L27.4029 50.6294H27.3823L27.3905 50.6084L27.4029 50.5874L27.4152 50.579L27.4235 50.5664L27.4317 50.5537L27.4441 50.5453L27.4564 50.5369L27.4647 50.5243L27.4729 50.5116L27.4853 50.5033L27.4976 50.4948L27.5058 50.4822L27.5141 50.4696L27.5264 50.4611L27.547 50.419C27.5608 50.391 27.5882 50.3489 27.6294 50.2928C27.6706 50.2367 27.7145 50.1595 27.7612 50.0614C27.8107 49.9632 27.8491 49.9113 27.8766 49.9057C27.904 49.8973 27.9754 49.8047 28.0908 49.628L28.2679 49.367L28.2803 49.3587L28.2885 49.346L28.2967 49.3334L28.3091 49.325L28.3214 49.3166L28.3297 49.3039L28.3379 49.2913L28.3503 49.2829L28.3626 49.2745L28.3709 49.2619L28.3791 49.2492L28.3915 49.2408L28.4121 49.1987L28.4327 49.1566L28.445 49.1483L28.4533 49.1356H28.3709L28.3626 49.1483L28.3503 49.1566L28.3379 49.1651L28.3297 49.1777L28.3214 49.1903L28.3091 49.1987L28.2967 49.2072L28.2885 49.2198L28.2803 49.2324L28.2679 49.2408L28.2555 49.2492L28.2473 49.2619L28.2391 49.2745L28.2267 49.2829L28.2144 49.2913L28.2061 49.3039L28.1979 49.3166L28.1855 49.325L28.1732 49.3334L28.1649 49.346L28.1567 49.3587L28.1443 49.367L27.8271 49.7668C27.6129 50.0334 27.4811 50.1806 27.4317 50.2086C27.3851 50.2367 27.3576 50.2536 27.3493 50.2592L27.3411 50.2718L27.3328 50.2844L27.3205 50.2928L27.3081 50.3012L27.2999 50.3139L27.1145 50.3265L26.9292 50.3349L26.9374 50.2718L26.9498 50.2086L26.9621 50.2003L26.9704 50.1876L26.9786 50.175L26.9909 50.1666L27.0115 50.1035L27.0321 50.0403L27.3823 49.325C27.6157 48.848 27.8244 48.4862 28.0084 48.2393C28.1951 47.9952 28.3846 47.8031 28.5768 47.6628C28.7691 47.5225 28.9888 47.4033 29.2359 47.3051C29.4831 47.2069 29.7096 47.1396 29.9155 47.1031C30.1215 47.0695 30.1998 47.1789 30.1503 47.4314C30.1037 47.6838 30.0117 47.9854 29.8743 48.3361C29.7371 48.6867 29.5819 48.9995 29.4089 49.2745C29.2386 49.5466 29.0574 49.7739 28.8652 49.9562C28.673 50.1385 28.4876 50.2788 28.3091 50.377C28.1306 50.4752 27.9933 50.5341 27.8972 50.5537C27.801 50.5762 27.753 50.6014 27.753 50.6294ZM28.4615 48.9968C28.4697 48.9911 28.478 48.9911 28.4862 48.9968C28.4917 49.0051 28.4876 49.0094 28.4739 49.0094C28.4601 49.0094 28.456 49.0051 28.4615 48.9968Z" fill="#010101" stroke="#010101" stroke-width="0.5"/>
<path fill-rule="evenodd" clip-rule="evenodd" d="M19.8239 38.4051L19.7003 37.332L20.1122 39.2256C20.3868 40.4881 20.6024 41.3605 20.759 41.8431C20.9182 42.3284 21.0734 42.7113 21.2244 42.9919C21.3754 43.2724 21.65 43.3776 22.0482 43.3074C22.4464 43.2373 22.7073 43.198 22.8309 43.1896L23.0162 43.1812L23.008 43.2233L22.9956 43.2654L22.9833 43.2738L22.975 43.2864L22.9668 43.2991L22.9544 43.3074L22.9421 43.3159L22.9338 43.3285L22.9256 43.3411L22.9132 43.3495L22.9009 43.358L22.8927 43.3706L22.8844 43.3832L22.8721 43.3916L22.8597 43.4337L22.8515 43.4758L22.6373 43.6652C22.4917 43.7914 22.4148 43.8685 22.4066 43.8966C22.4011 43.9247 22.261 44.02 21.9864 44.1827C21.7118 44.3426 21.5608 44.4296 21.5333 44.4437L21.4921 44.4647L21.4303 44.4773L21.3685 44.4857L21.3603 44.4437C21.3521 44.4156 21.2587 44.1771 21.0802 43.7282C20.9017 43.2794 20.7232 42.7464 20.5448 42.1292C20.3662 41.512 20.2221 40.9159 20.1122 40.3408C20.0024 39.7657 19.9063 39.1204 19.8239 38.4051Z" fill="#FAFAFA" stroke="#FAFAFA" stroke-width="0.5"/>
<path fill-rule="evenodd" clip-rule="evenodd" d="M19.0208 49.4091L19.3297 50.0824L19.3503 50.1245L19.3709 50.1666L19.3914 50.2086L19.412 50.2507L19.4245 50.2928L19.4326 50.3349L19.2473 50.3265L19.062 50.3139L19.0537 50.3012L19.0414 50.2928L19.029 50.2844L19.0208 50.2718L19.0125 50.2592C19.0042 50.2536 18.9768 50.2367 18.9301 50.2086C18.8807 50.1806 18.8532 50.1526 18.8478 50.1245C18.8395 50.0964 18.7159 49.945 18.477 49.67L18.1145 49.2619L18.1063 49.2492L18.0939 49.2408L18.0816 49.2324L18.0734 49.2198L18.0651 49.2072L18.0528 49.1987L18.0404 49.1903L18.0322 49.1777L18.0239 49.1651L18.0116 49.1566L17.9992 49.1483L17.991 49.1356L17.9827 49.123L17.9704 49.1146L17.9498 49.0725L17.9292 49.0304L17.9168 49.022L17.9086 49.0094L17.9003 48.9968L17.888 48.9883V49.0725L17.9086 49.1146L17.9292 49.1566L17.9498 49.1987L17.9704 49.2408L17.9827 49.2829L17.991 49.325H18.0322C18.0596 49.325 18.19 49.4961 18.4235 49.8384C18.6569 50.1834 18.7763 50.3601 18.7819 50.3686L18.7942 50.377L18.8148 50.419L18.8354 50.4611L18.856 50.5033L18.8766 50.5453L18.889 50.5537L18.8972 50.5664L18.9054 50.579L18.9178 50.5874L18.9301 50.6084L18.9384 50.6294H18.9178L18.9054 50.6379L18.8972 50.6505L18.7324 50.6631L18.5677 50.6715L18.5759 50.6505L18.5883 50.6294L18.6006 50.6211L18.6089 50.6084L18.5677 50.5874L18.5265 50.5664L18.4235 50.5453L18.3205 50.5243L18.2587 50.5033C18.2175 50.4892 18.1282 50.4401 17.991 50.356C17.8536 50.2718 17.6999 50.1497 17.5296 49.9899C17.3566 49.8271 17.1877 49.6265 17.023 49.3881C16.8582 49.1496 16.6934 48.827 16.5287 48.4203C16.3639 48.0135 16.2582 47.6838 16.2115 47.4314C16.162 47.1789 16.2404 47.0695 16.4463 47.1031C16.6522 47.1396 16.8788 47.2069 17.1259 47.3051C17.3731 47.4033 17.5996 47.5365 17.8056 47.7048C18.0116 47.8732 18.2134 48.0878 18.4111 48.3487C18.6116 48.6068 18.8148 48.9603 19.0208 49.4091ZM17.7521 48.9126C17.7603 48.907 17.7685 48.907 17.7768 48.9126C17.7823 48.921 17.7782 48.9252 17.7644 48.9252C17.7507 48.9252 17.7465 48.921 17.7521 48.9126Z" fill="#010101" stroke="#010101" stroke-width="0.5"/>
<path fill-rule="evenodd" clip-rule="evenodd" d="M14.8272 33.7549L14.8395 33.7129L14.8519 33.7213L14.8601 33.7339L14.9013 33.7549L14.9425 33.776H15.1073L15.1485 33.7886L15.1897 33.797L16.0958 35.5728C16.7 36.7595 17.0405 37.4328 17.1174 37.5927C17.1916 37.7554 17.5513 38.475 18.1966 39.7514C18.842 41.0279 19.1687 41.6802 19.177 41.7082L19.1852 41.7503H19.1234C19.0822 41.7503 19.0589 41.7643 19.0534 41.7924L19.041 41.8344L19.0204 41.8765L18.9998 41.9186L18.9875 41.927L18.9792 41.9397L18.9711 41.9522L18.9586 41.9607L18.9463 41.9691L18.938 41.9817L18.9299 41.9943L18.9175 42.0028L18.9051 42.0111L18.8969 42.0238L18.8557 42.0448L18.8145 42.0659L18.8228 42.0785L18.8351 42.0869L18.8475 42.0954L18.8557 42.1079L18.8475 42.1206L18.8351 42.129L18.8145 42.1711L18.7939 42.2132L18.7816 42.2215L18.7733 42.2342L18.765 42.2468L18.7527 42.2552L18.7404 42.2637L18.7321 42.2763L18.7115 42.2889L18.6909 42.2973H18.6703L18.6498 42.2552L18.6292 42.2132L18.6086 42.1711L18.588 42.129L18.5674 42.0659C18.5536 42.0238 18.2351 41.3323 17.6117 39.9913C16.9856 38.6531 16.5284 37.6755 16.24 37.0583C15.9517 36.4411 15.6428 35.7819 15.3132 35.0805L14.8189 34.0285L14.8107 34.0158L14.7983 34.0074L14.786 33.9653L14.7778 33.9233L14.7695 33.9022C14.7613 33.8882 14.753 33.8741 14.7448 33.8602L14.7366 33.8391V33.8307C14.7366 33.8223 14.7503 33.8138 14.7778 33.8054L14.8189 33.797L14.8272 33.7549ZM14.8272 33.8475C14.8354 33.8419 14.8437 33.8419 14.8519 33.8475C14.8574 33.8559 14.8532 33.8602 14.8395 33.8602C14.8258 33.8602 14.8217 33.8559 14.8272 33.8475Z" fill="#050505" stroke="#050505" stroke-width="0.5"/>
<path fill-rule="evenodd" clip-rule="evenodd" d="M13.7978 31.9118L13.8101 31.9033L13.8307 31.9454L13.8513 31.9875L13.8719 32.0296L13.8925 32.0717L13.9131 32.1137L13.9337 32.1558L14.325 32.9974C14.5859 33.5585 14.7205 33.839 14.7287 33.839H14.737L14.7452 33.8811C14.7534 33.9092 14.7617 33.9232 14.7699 33.9232H14.7782L14.7864 33.9653L14.7987 34.0074L14.8111 34.0158L14.8193 34.0284L15.3136 35.0804C15.6432 35.7818 15.9521 36.441 16.2404 37.0583C16.5288 37.6754 16.986 38.6531 17.6121 39.9912C18.2355 41.3322 18.554 42.0238 18.5678 42.0658L18.5884 42.1289L18.609 42.171L18.6296 42.2131L18.6502 42.2552L18.6708 42.2973H18.6913L19.3833 43.8122C19.8419 44.8221 20.0781 45.3411 20.0918 45.3692L20.1124 45.4113L20.133 45.4954L20.1536 45.5796V45.7479L20.133 45.7058L20.1124 45.6637L20.1001 45.6553L20.0918 45.6427L20.0836 45.63L20.0712 45.6217L20.0506 45.5585L20.03 45.4954L20.0094 45.4533L19.9888 45.4113L19.9683 45.3692C19.9546 45.3411 19.1651 43.721 17.5998 40.5088C16.0345 37.2967 14.9773 35.1225 14.428 33.9863L13.6042 32.2821L13.5836 32.24L13.563 32.1979V32.1137L13.5753 32.1053L13.5836 32.0927L13.5918 32.0801L13.6042 32.0717L13.6165 32.0632L13.6248 32.0507L13.666 32.0296L13.7072 32.0086L13.7154 31.9959L13.7278 31.9875L13.7401 31.9791L13.7484 31.9664L13.7566 31.9539L13.7689 31.9454L13.7813 31.937L13.7895 31.9244L13.7978 31.9118Z" fill="#F7F7F7" stroke="#F7F7F7" stroke-width="0.5"/>
<path fill-rule="evenodd" clip-rule="evenodd" d="M25.6732 42.7181L26.0439 41.1611L25.9821 41.8555C25.9409 42.3183 25.8173 43.0898 25.6114 44.1699C25.4055 45.25 25.3121 45.8629 25.3313 46.0088C25.3533 46.1575 25.4219 46.3483 25.5372 46.5811C25.6554 46.8111 25.7213 46.9472 25.735 46.9893L25.7556 47.0525L25.7761 47.0945L25.7967 47.1366L25.8173 47.1997L25.8379 47.2629L25.8503 47.3049L25.8585 47.347H25.7761L25.7679 47.3049L25.7556 47.2629L25.735 47.2207L25.7144 47.1786L25.7021 47.1703L25.6938 47.1576L25.6855 47.145L25.6732 47.1366L25.6608 47.1282L25.6526 47.1155L25.6443 47.1029L25.632 47.0945L25.6196 47.0861C25.6142 47.0777 25.573 47.0412 25.496 46.9767C25.4219 46.9149 25.2379 46.8392 24.9441 46.7495L24.4992 46.6106L24.4581 46.598L24.4169 46.5895L24.4251 46.5474L24.4375 46.5054L24.4581 46.4633C24.4717 46.4352 24.5129 46.3441 24.5816 46.1898C24.6503 46.0355 24.7876 45.6778 24.9935 45.1167C25.1995 44.5556 25.4261 43.7561 25.6732 42.7181Z" fill="#FAFAFA" stroke="#FAFAFA" stroke-width="0.5"/>
<path d="M62.327 61.2236V25.2236H70.3145V57.2111H82.3145V61.2236H62.327ZM94.3332 61.2236V25.2236H102.339V61.2236H94.3332ZM114.358 61.2236V25.2236H116.177L138.358 45.2111V25.2236H142.371V61.2236H140.533L118.371 41.2361V61.2236H114.358ZM150.358 61.2236V25.2236H166.371C168.558 25.2236 170.433 26.0111 171.996 27.5861C173.571 29.1611 174.358 31.0361 174.358 33.2111V53.2361C174.358 55.3986 173.571 57.2736 171.996 58.8611C170.433 60.4361 168.558 61.2236 166.371 61.2236H150.358ZM158.346 57.2111H162.358C163.471 57.2111 164.414 56.8174 165.189 56.0299C165.977 55.2424 166.371 54.3111 166.371 53.2361V33.2111C166.371 32.1236 165.971 31.1924 165.171 30.4174C164.383 29.6299 163.446 29.2361 162.358 29.2361H158.346V57.2111ZM182.327 61.2236V33.2111C182.327 31.0236 183.108 29.1486 184.671 27.5861C186.246 26.0111 188.127 25.2236 190.314 25.2236H198.339C200.527 25.2236 202.402 26.0111 203.964 27.5861C205.539 29.1611 206.327 31.0361 206.327 33.2111V61.2236H198.339V45.2111H190.314V61.2236H182.327ZM190.314 41.2361H198.339V33.2111C198.339 32.1236 197.939 31.1924 197.139 30.4174C196.352 29.6299 195.414 29.2361 194.327 29.2361C193.227 29.2361 192.283 29.6299 191.496 30.4174C190.708 31.1924 190.314 32.1236 190.314 33.2111V41.2361ZM82.3145 94.2111H78.3395C77.9895 91.5361 76.727 90.1986 74.552 90.1986C73.152 90.1986 72.0957 90.5361 71.3832 91.2111C70.6707 91.8861 70.3145 92.8924 70.3145 94.2299C70.3145 95.2299 70.7082 96.1674 71.4957 97.0424L79.9707 106.567C81.5332 108.317 82.3145 110.199 82.3145 112.211V114.236C82.3145 116.399 81.5332 118.274 79.9707 119.861C78.4082 121.436 76.527 122.224 74.327 122.224H70.3145C67.6645 122.224 65.6707 121.555 64.3332 120.217C62.9957 118.88 62.327 116.886 62.327 114.236H66.3395C66.3145 114.511 66.302 114.73 66.302 114.892C66.302 115.98 66.7207 116.805 67.5582 117.367C68.3957 117.93 69.3145 118.211 70.3145 118.211C71.7395 118.211 72.7645 117.867 73.3895 117.18C74.0145 116.492 74.327 115.492 74.327 114.18C74.327 113.167 73.9332 112.23 73.1457 111.367L64.6707 101.88C63.1082 100.142 62.327 98.2611 62.327 96.2361V94.2111C62.327 92.0361 63.1082 90.1611 64.6707 88.5861C66.2332 87.0111 68.1145 86.2236 70.3145 86.2236H74.327C79.327 86.2236 81.9895 88.8861 82.3145 94.2111ZM94.3332 122.224V90.2361H86.3457V86.2236H110.346V90.2361H102.358V122.224H94.3332ZM114.358 122.224V94.2111C114.358 92.0236 115.139 90.1486 116.702 88.5861C118.277 87.0111 120.158 86.2236 122.346 86.2236H130.371C132.558 86.2236 134.433 87.0111 135.996 88.5861C137.571 90.1611 138.358 92.0361 138.358 94.2111V122.224H130.371V106.211H122.346V122.224H114.358ZM122.346 102.236H130.371V94.2111C130.371 93.1236 129.971 92.1924 129.171 91.4174C128.383 90.6299 127.446 90.2361 126.358 90.2361C125.258 90.2361 124.314 90.6299 123.527 91.4174C122.739 92.1924 122.346 93.1236 122.346 94.2111V102.236ZM146.327 122.224V86.2236H162.339C164.527 86.2236 166.402 87.0111 167.964 88.5861C169.539 90.1611 170.327 92.0361 170.327 94.2111V96.3861C170.327 98.1736 169.714 99.8986 168.489 101.561C167.264 103.211 165.214 104.036 162.339 104.036H166.314C167.414 104.036 168.358 104.43 169.146 105.217C169.933 106.005 170.327 106.949 170.327 108.049V122.224H162.339V110.224C162.339 109.124 161.939 108.18 161.139 107.392C160.352 106.605 159.414 106.211 158.327 106.211H154.314V122.224H146.327ZM154.314 102.236H158.327C159.414 102.236 160.352 101.842 161.139 101.055C161.939 100.255 162.339 99.3111 162.339 98.2236V94.2111C162.339 93.1236 161.939 92.1924 161.139 91.4174C160.352 90.6299 159.414 90.2361 158.327 90.2361H154.314V102.236ZM178.296 122.224V86.2236H186.283V100.924L199.221 86.2236H206.308L190.296 104.224L206.308 122.224H198.283L186.283 108.236V122.224H178.296Z" fill="black"/>
</g>
<defs>
<clipPath id="clip0">
<rect width="256" height="62.6447" fill="white" transform="translate(0.52771)"/>
</clipPath>
</defs>
</svg>
